<svg width="1800" height="792" viewBox="0 0 1800 792" fill="none" xmlns="http://www.w3.org/2000/svg">
<rect x="421.756" y="247.902" width="846.732" height="196.39" rx="98.1951" fill="#AEF2D9"/>
<rect x="1" y="596.61" width="844.732" height="194.39" rx="97.1951" stroke="black" stroke-width="4"/>
<rect x="1" y="1" width="844.732" height="194.39" rx="97.1951" stroke="black" stroke-width="4"/>
<rect x="953.976" y="500.024" width="844.732" height="194.39" rx="97.1951" stroke="black" stroke-width="4"/>
<rect x="953.976" y="1" width="844.732" height="194.39" rx="97.1951" stroke="black" stroke-width="4"/>
<rect x="763.739" y="345.814" width="116.756" height="116.756" rx="6" transform="rotate(-45 763.739 345.814)" stroke="#04BF9D" stroke-width="4"/>
<path d="M840.293 374.274C840.293 373.112 840.501 371.961 840.905 370.888C841.31 369.814 841.903 368.839 842.65 368.017C843.397 367.196 844.285 366.544 845.261 366.099C846.238 365.655 847.284 365.426 848.341 365.426C849.398 365.426 850.445 365.655 851.422 366.099C852.398 366.544 853.285 367.196 854.033 368.017C854.78 368.839 855.373 369.814 855.777 370.888C856.182 371.961 856.39 373.112 856.39 374.274C856.39 376.621 855.542 378.871 854.033 380.53C852.523 382.19 850.476 383.122 848.341 383.122C846.207 383.122 844.159 382.19 842.65 380.53C841.141 378.871 840.293 376.621 840.293 374.274ZM841.081 321.141C840.974 320.025 841.082 318.896 841.397 317.828C841.712 316.761 842.228 315.778 842.911 314.944C843.594 314.109 844.429 313.442 845.362 312.985C846.295 312.529 847.304 312.293 848.325 312.293C849.346 312.293 850.356 312.529 851.289 312.985C852.222 313.442 853.056 314.109 853.74 314.944C854.423 315.778 854.938 316.761 855.254 317.828C855.569 318.896 855.676 320.025 855.569 321.141L852.752 352.171C852.638 353.374 852.122 354.488 851.304 355.298C850.487 356.107 849.426 356.555 848.325 356.555C847.225 356.555 846.164 356.107 845.346 355.298C844.529 354.488 844.013 353.374 843.898 352.171L841.081 321.141Z" fill="#04BF9D"/>
<rect x="1291.91" y="596.366" width="118.756" height="118.756" rx="7" transform="rotate(-45 1291.91 596.366)" stroke="black" stroke-width="4"/>
<path d="M1369.77 569.715L1369.77 569.715L1369.76 569.709C1369.66 568.702 1369.77 567.683 1370.08 566.719C1370.39 565.755 1370.9 564.868 1371.58 564.114C1372.26 563.361 1373.09 562.759 1374.01 562.347C1374.94 561.934 1375.94 561.721 1376.95 561.721C1377.97 561.721 1378.97 561.934 1379.9 562.347C1380.82 562.759 1381.65 563.361 1382.33 564.114C1383.01 564.868 1383.52 565.755 1383.83 566.719C1384.14 567.683 1384.25 568.702 1384.14 569.709L1384.14 569.715L1380.96 601.6C1380.96 601.601 1380.96 601.601 1380.96 601.602C1380.86 602.592 1380.39 603.508 1379.65 604.174C1378.91 604.84 1377.95 605.209 1376.95 605.209C1375.96 605.209 1375 604.84 1374.26 604.174C1373.52 603.508 1373.05 602.592 1372.95 601.602C1372.95 601.601 1372.95 601.601 1372.95 601.6L1369.77 569.715ZM1368.88 624.419C1368.88 623.356 1369.09 622.303 1369.5 621.321C1369.9 620.34 1370.5 619.447 1371.25 618.696C1372 617.944 1372.89 617.348 1373.88 616.941C1374.86 616.535 1375.91 616.325 1376.97 616.325C1378.04 616.325 1379.09 616.535 1380.07 616.941C1381.05 617.348 1381.94 617.944 1382.69 618.696C1383.45 619.447 1384.04 620.34 1384.45 621.321C1384.86 622.303 1385.07 623.356 1385.07 624.419C1385.07 626.565 1384.21 628.623 1382.69 630.141C1381.18 631.659 1379.12 632.512 1376.97 632.512C1374.83 632.512 1372.77 631.659 1371.25 630.141C1369.73 628.623 1368.88 626.565 1368.88 624.419Z" stroke="black" stroke-width="2"/>
<rect x="338.95" y="692.952" width="118.756" height="118.756" rx="7" transform="rotate(-45 338.95 692.952)" stroke="black" stroke-width="4"/>
<path d="M416.808 666.301L416.808 666.301L416.808 666.295C416.701 665.287 416.808 664.268 417.121 663.304C417.434 662.34 417.946 661.453 418.624 660.7C419.301 659.947 420.13 659.344 421.056 658.932C421.982 658.52 422.984 658.307 423.997 658.307C425.01 658.307 426.012 658.52 426.938 658.932C427.864 659.344 428.693 659.947 429.371 660.7C430.048 661.453 430.56 662.34 430.873 663.304C431.186 664.268 431.293 665.287 431.186 666.295L431.186 666.301L428.004 698.185C428.004 698.186 428.004 698.187 428.003 698.188C427.899 699.177 427.433 700.093 426.693 700.759C425.953 701.426 424.993 701.795 423.997 701.795C423.001 701.795 422.041 701.426 421.301 700.759C420.561 700.093 420.095 699.177 419.991 698.188C419.991 698.187 419.99 698.186 419.99 698.185L416.808 666.301ZM415.922 721.004C415.922 719.941 416.131 718.889 416.538 717.907C416.945 716.925 417.541 716.033 418.293 715.281C419.044 714.53 419.936 713.934 420.918 713.527C421.9 713.12 422.952 712.911 424.015 712.911C425.078 712.911 426.13 713.12 427.112 713.527C428.094 713.934 428.986 714.53 429.738 715.281C430.489 716.033 431.086 716.925 431.492 717.907C431.899 718.889 432.108 719.941 432.108 721.004C432.108 723.15 431.256 725.209 429.738 726.727C428.22 728.244 426.162 729.097 424.015 729.097C421.869 729.097 419.81 728.244 418.293 726.727C416.775 725.209 415.922 723.15 415.922 721.004Z" stroke="black" stroke-width="2"/>
<rect x="338.95" y="98.4821" width="118.756" height="118.756" rx="7" transform="rotate(-45 338.95 98.4821)" stroke="black" stroke-width="4"/>
<path d="M416.808 71.8305L416.808 71.8305L416.808 71.8249C416.701 70.8171 416.808 69.7982 417.121 68.8343C417.434 67.8705 417.946 66.9831 418.624 66.2299C419.301 65.4766 420.13 64.8743 421.056 64.4621C421.982 64.0498 422.984 63.8367 423.997 63.8367C425.01 63.8367 426.012 64.0498 426.938 64.4621C427.864 64.8743 428.693 65.4766 429.371 66.2299C430.048 66.9831 430.56 67.8705 430.873 68.8343C431.186 69.7982 431.293 70.8171 431.186 71.8249L431.186 71.8305L428.004 103.715C428.004 103.716 428.004 103.717 428.003 103.718C427.899 104.707 427.433 105.623 426.693 106.289C425.953 106.956 424.993 107.325 423.997 107.325C423.001 107.325 422.041 106.956 421.301 106.289C420.561 105.623 420.095 104.707 419.991 103.718C419.991 103.717 419.99 103.716 419.99 103.715L416.808 71.8305ZM415.922 126.534C415.922 125.471 416.131 124.419 416.538 123.437C416.945 122.455 417.541 121.563 418.293 120.811C419.044 120.06 419.936 119.464 420.918 119.057C421.9 118.65 422.952 118.441 424.015 118.441C425.078 118.441 426.13 118.65 427.112 119.057C428.094 119.464 428.986 120.06 429.738 120.811C430.489 121.563 431.086 122.455 431.492 123.437C431.899 124.419 432.108 125.471 432.108 126.534C432.108 128.68 431.256 130.739 429.738 132.257C428.22 133.774 426.162 134.627 424.015 134.627C421.869 134.627 419.81 133.774 418.293 132.257C416.775 130.739 415.922 128.68 415.922 126.534Z" stroke="black" stroke-width="2"/>
<rect x="1302.09" y="98.4821" width="118.756" height="118.756" rx="7" transform="rotate(-45 1302.09 98.4821)" stroke="black" stroke-width="4"/>
<path d="M1379.95 71.8305L1379.95 71.8305L1379.95 71.8249C1379.84 70.8171 1379.95 69.7982 1380.26 68.8343C1380.58 67.8705 1381.09 66.9831 1381.76 66.2299C1382.44 65.4766 1383.27 64.8743 1384.2 64.4621C1385.12 64.0498 1386.13 63.8367 1387.14 63.8367C1388.15 63.8367 1389.15 64.0498 1390.08 64.4621C1391.01 64.8743 1391.83 65.4766 1392.51 66.2299C1393.19 66.9831 1393.7 67.8705 1394.01 68.8343C1394.33 69.7982 1394.43 70.8171 1394.33 71.8249L1394.33 71.8305L1391.15 103.715C1391.14 103.716 1391.14 103.717 1391.14 103.718C1391.04 104.707 1390.57 105.623 1389.83 106.289C1389.09 106.956 1388.13 107.325 1387.14 107.325C1386.14 107.325 1385.18 106.956 1384.44 106.289C1383.7 105.623 1383.24 104.707 1383.13 103.718C1383.13 103.717 1383.13 103.716 1383.13 103.715L1379.95 71.8305ZM1379.06 126.534C1379.06 125.471 1379.27 124.419 1379.68 123.437C1380.09 122.455 1380.68 121.563 1381.43 120.811C1382.19 120.06 1383.08 119.464 1384.06 119.057C1385.04 118.65 1386.09 118.441 1387.16 118.441C1388.22 118.441 1389.27 118.65 1390.25 119.057C1391.24 119.464 1392.13 120.06 1392.88 120.811C1393.63 121.563 1394.23 122.455 1394.63 123.437C1395.04 124.419 1395.25 125.471 1395.25 126.534C1395.25 128.68 1394.4 130.739 1392.88 132.257C1391.36 133.774 1389.3 134.627 1387.16 134.627C1385.01 134.627 1382.95 133.774 1381.43 132.257C1379.92 130.739 1379.06 128.68 1379.06 126.534Z" stroke="black" stroke-width="2"/>
</svg>
