<svg width="639" height="822" viewBox="0 0 639 822" fill="none" xmlns="http://www.w3.org/2000/svg">
<rect x="51.8284" y="311.843" width="396" height="396" rx="38" transform="rotate(-45 51.8284 311.843)" stroke="white" stroke-width="4"/>
<rect x="94.8284" y="354.416" width="336" height="336" rx="32" transform="rotate(-45 94.8284 354.416)" stroke="white" stroke-width="4"/>
<circle cx="332" cy="312" r="83" stroke="white" stroke-width="4"/>
<path d="M347.716 744.867C342.599 757.724 324.401 757.724 319.284 744.867L269.877 620.707C265.879 610.661 273.28 599.75 284.092 599.75H382.907C393.72 599.75 401.121 610.661 397.123 620.707L347.716 744.867Z" stroke="white" stroke-width="4"/>
<path d="M557.197 355.193L558.197 355.213L558.215 354.297L557.304 354.199L557.197 355.193ZM333.183 577.968L332.189 578.076L332.287 578.982L333.198 578.968L333.183 577.968ZM335.186 577.879L335.259 578.877L336.292 578.801L336.18 577.771L335.186 577.879ZM557.097 357.194L556.989 358.188L558.013 358.3L558.094 357.273L557.097 357.194ZM557.304 354.199C549.981 353.407 542.541 353 535.006 353V355C542.469 355 549.837 355.403 557.089 356.187L557.304 354.199ZM535.006 353C422.341 353 331 443.894 331 556.028H333C333 445.008 423.437 355 535.006 355V353ZM331 556.028C331 563.478 331.403 570.834 332.189 578.076L334.177 577.86C333.399 570.689 333 563.405 333 556.028H331ZM335.112 576.882C334.465 576.93 333.817 576.958 333.168 576.968L333.198 578.968C333.886 578.957 334.573 578.927 335.259 578.877L335.112 576.882ZM333 556.028C333 563.449 333.404 570.775 334.192 577.988L336.18 577.771C335.4 570.63 335 563.376 335 556.028H333ZM535.006 355C423.437 355 333 445.008 333 556.028H335C335 446.122 424.532 357 535.006 357V355ZM557.206 356.2C549.915 355.407 542.508 355 535.006 355V357C542.436 357 549.771 357.403 556.989 358.188L557.206 356.2ZM556.197 355.173C556.184 355.821 556.152 356.469 556.101 357.115L558.094 357.273C558.149 356.587 558.183 355.901 558.197 355.213L556.197 355.173Z" fill="white"/>
<circle cx="397" cy="409" r="5" fill="#04BF9D" stroke="white" stroke-width="2"/>
</svg>
