<svg width="804" height="984" viewBox="0 0 804 984" fill="none" xmlns="http://www.w3.org/2000/svg">
<rect x="107" y="399.843" width="400" height="400" rx="40" transform="rotate(-45 107 399.843)" fill="#AEF2D9"/>
<rect x="150" y="442.416" width="340" height="340" rx="34" transform="rotate(-45 150 442.416)" fill="#04BF9D"/>
<circle cx="390" cy="400" r="85" fill="white"/>
<path d="M407.574 833.606C401.789 848.144 381.211 848.144 375.426 833.606L326.018 709.446C321.498 698.087 329.867 685.75 342.092 685.75H440.907C453.133 685.75 461.502 698.087 456.982 709.446L407.574 833.606Z" fill="#04BF9D"/>
<path fill-rule="evenodd" clip-rule="evenodd" d="M616.74 443.195C609.435 442.405 602.015 442 594.5 442C481.558 442 390 533.558 390 646.5C390 654.015 390.405 661.435 391.195 668.74C391.863 668.725 392.53 668.691 393.196 668.636C392.406 661.366 392 653.98 392 646.5C392 534.662 482.662 444 594.5 444C601.98 444 609.366 444.406 616.636 445.196C616.691 444.53 616.725 443.863 616.74 443.195Z" fill="black"/>
<circle cx="449" cy="506" r="6" fill="white"/>
</svg>
